<mxfile host="app.diagrams.net" modified="2023-08-14T12:43:43.930Z" agent="Mozilla/5.0 (Windows NT 10.0; Win64; x64) AppleWebKit/537.36 (KHTML, like Gecko) Chrome/107.0.0.0 Safari/537.36 Edg/107.0.1418.35" etag="IQl5FUkAYxhIicARCoa4" version="21.6.8" type="device">
  <diagram name="Página-1" id="qKSfeTDRGG3xi8-z3TqL">
    <mxGraphModel dx="1956" dy="2245" grid="1" gridSize="10" guides="1" tooltips="1" connect="1" arrows="1" fold="1" page="1" pageScale="1" pageWidth="827" pageHeight="1169" math="0" shadow="0">
      <root>
        <mxCell id="0" />
        <mxCell id="1" parent="0" />
        <mxCell id="IYeIHnDfgJDjdujtJZNO-1" value="" style="rounded=0;whiteSpace=wrap;html=1;movable=1;resizable=1;rotatable=1;deletable=1;editable=1;locked=0;connectable=1;" vertex="1" parent="1">
          <mxGeometry x="260" y="-940" width="320" height="650" as="geometry" />
        </mxCell>
        <mxCell id="IYeIHnDfgJDjdujtJZNO-35" style="rounded=0;orthogonalLoop=1;jettySize=auto;html=1;dashed=1;dashPattern=1 1;" edge="1" parent="1" source="IYeIHnDfgJDjdujtJZNO-2" target="IYeIHnDfgJDjdujtJZNO-30">
          <mxGeometry relative="1" as="geometry" />
        </mxCell>
        <mxCell id="IYeIHnDfgJDjdujtJZNO-36" value="include" style="edgeLabel;html=1;align=center;verticalAlign=middle;resizable=0;points=[];" vertex="1" connectable="0" parent="IYeIHnDfgJDjdujtJZNO-35">
          <mxGeometry x="0.2817" y="-5" relative="1" as="geometry">
            <mxPoint x="-10" y="6" as="offset" />
          </mxGeometry>
        </mxCell>
        <mxCell id="IYeIHnDfgJDjdujtJZNO-43" style="edgeStyle=orthogonalEdgeStyle;rounded=0;orthogonalLoop=1;jettySize=auto;html=1;dashed=1;dashPattern=1 1;" edge="1" parent="1" source="IYeIHnDfgJDjdujtJZNO-2" target="IYeIHnDfgJDjdujtJZNO-39">
          <mxGeometry relative="1" as="geometry">
            <Array as="points">
              <mxPoint x="350" y="-560" />
              <mxPoint x="350" y="-560" />
            </Array>
          </mxGeometry>
        </mxCell>
        <mxCell id="IYeIHnDfgJDjdujtJZNO-44" value="include" style="edgeLabel;html=1;align=center;verticalAlign=middle;resizable=0;points=[];" vertex="1" connectable="0" parent="IYeIHnDfgJDjdujtJZNO-43">
          <mxGeometry x="0.0687" y="1" relative="1" as="geometry">
            <mxPoint as="offset" />
          </mxGeometry>
        </mxCell>
        <mxCell id="IYeIHnDfgJDjdujtJZNO-2" value="Matricular em disciplina" style="ellipse;whiteSpace=wrap;html=1;" vertex="1" parent="1">
          <mxGeometry x="290" y="-700" width="120" height="80" as="geometry" />
        </mxCell>
        <mxCell id="IYeIHnDfgJDjdujtJZNO-4" value="Aluno" style="shape=umlActor;verticalLabelPosition=bottom;verticalAlign=top;html=1;outlineConnect=0;" vertex="1" parent="1">
          <mxGeometry x="160" y="-580" width="30" height="60" as="geometry" />
        </mxCell>
        <mxCell id="IYeIHnDfgJDjdujtJZNO-11" value="" style="endArrow=none;html=1;rounded=0;" edge="1" parent="1" target="IYeIHnDfgJDjdujtJZNO-2">
          <mxGeometry width="50" height="50" relative="1" as="geometry">
            <mxPoint x="200" y="-560" as="sourcePoint" />
            <mxPoint x="250" y="-610" as="targetPoint" />
          </mxGeometry>
        </mxCell>
        <mxCell id="IYeIHnDfgJDjdujtJZNO-25" style="rounded=0;orthogonalLoop=1;jettySize=auto;html=1;endArrow=none;endFill=0;" edge="1" parent="1" source="IYeIHnDfgJDjdujtJZNO-24">
          <mxGeometry relative="1" as="geometry">
            <mxPoint x="200" y="-560" as="targetPoint" />
          </mxGeometry>
        </mxCell>
        <mxCell id="IYeIHnDfgJDjdujtJZNO-45" style="edgeStyle=orthogonalEdgeStyle;rounded=0;orthogonalLoop=1;jettySize=auto;html=1;dashed=1;dashPattern=1 1;" edge="1" parent="1" source="IYeIHnDfgJDjdujtJZNO-24" target="IYeIHnDfgJDjdujtJZNO-39">
          <mxGeometry relative="1" as="geometry" />
        </mxCell>
        <mxCell id="IYeIHnDfgJDjdujtJZNO-46" value="include" style="edgeLabel;html=1;align=center;verticalAlign=middle;resizable=0;points=[];" vertex="1" connectable="0" parent="IYeIHnDfgJDjdujtJZNO-45">
          <mxGeometry x="-0.1202" y="1" relative="1" as="geometry">
            <mxPoint as="offset" />
          </mxGeometry>
        </mxCell>
        <mxCell id="IYeIHnDfgJDjdujtJZNO-24" value="Cancelar matrícula" style="ellipse;whiteSpace=wrap;html=1;" vertex="1" parent="1">
          <mxGeometry x="290" y="-390" width="120" height="80" as="geometry" />
        </mxCell>
        <mxCell id="IYeIHnDfgJDjdujtJZNO-26" value="Sistema de Cobrança" style="shape=umlActor;verticalLabelPosition=bottom;verticalAlign=top;html=1;outlineConnect=0;" vertex="1" parent="1">
          <mxGeometry x="660" y="-770" width="30" height="60" as="geometry" />
        </mxCell>
        <mxCell id="IYeIHnDfgJDjdujtJZNO-33" style="rounded=0;orthogonalLoop=1;jettySize=auto;html=1;entryX=0;entryY=0.3333333333333333;entryDx=0;entryDy=0;entryPerimeter=0;" edge="1" parent="1" source="IYeIHnDfgJDjdujtJZNO-30" target="IYeIHnDfgJDjdujtJZNO-26">
          <mxGeometry relative="1" as="geometry" />
        </mxCell>
        <mxCell id="IYeIHnDfgJDjdujtJZNO-30" value="Notificar nova inscrição" style="ellipse;whiteSpace=wrap;html=1;" vertex="1" parent="1">
          <mxGeometry x="430" y="-840" width="120" height="80" as="geometry" />
        </mxCell>
        <mxCell id="IYeIHnDfgJDjdujtJZNO-39" value="Login" style="ellipse;whiteSpace=wrap;html=1;" vertex="1" parent="1">
          <mxGeometry x="290" y="-550" width="120" height="80" as="geometry" />
        </mxCell>
        <mxCell id="IYeIHnDfgJDjdujtJZNO-48" value="Professor" style="shape=umlActor;verticalLabelPosition=bottom;verticalAlign=top;html=1;outlineConnect=0;" vertex="1" parent="1">
          <mxGeometry x="160" y="-810" width="30" height="60" as="geometry" />
        </mxCell>
        <mxCell id="IYeIHnDfgJDjdujtJZNO-50" style="rounded=0;orthogonalLoop=1;jettySize=auto;html=1;entryX=1;entryY=0.3333333333333333;entryDx=0;entryDy=0;entryPerimeter=0;endArrow=none;endFill=0;" edge="1" parent="1" source="IYeIHnDfgJDjdujtJZNO-49" target="IYeIHnDfgJDjdujtJZNO-48">
          <mxGeometry relative="1" as="geometry" />
        </mxCell>
        <mxCell id="IYeIHnDfgJDjdujtJZNO-49" value="Visualizar matrículas" style="ellipse;whiteSpace=wrap;html=1;" vertex="1" parent="1">
          <mxGeometry x="300" y="-920" width="120" height="80" as="geometry" />
        </mxCell>
      </root>
    </mxGraphModel>
  </diagram>
</mxfile>
